<?xml version='1.0' encoding='utf-8'?>
<!DOCTYPE svg PUBLIC '-//W3C//DTD SVG 1.1//EN' 'http://www.w3.org/Graphics/SVG/1.1/DTD/svg11.dtd'>
<svg version="1.1" xmlns="http://www.w3.org/2000/svg" viewBox="0 0 512 512" xmlns:xlink="http://www.w3.org/1999/xlink" enable-background="new 0 0 512 512">
  <g>
    <path d="m393.1,116.3c-12.8-60.2-70-105.3-137.1-105.3-67.1,0-124.3,45.1-137.1,105.3-62.5,13.7-107.9,66.1-107.9,127.5 0,14 2.3,27.7 7,40.9 10.4,29.7 39.6,49.6 72.7,49.6h81.4c-0.1,0.8-0.2,81.2-0.2,81.2h-52.7l10.3-8.9c8.5-7.4 9.5-20.3 2.1-28.8-7.4-8.5-20.3-9.5-28.8-2.1l-51.7,44.7c-4.5,3.9-7.1,9.5-7.1,15.4 0,5.9 2.6,11.6 7.1,15.4l51.7,44.7c13.1,10.1 24.8,2.6 28.8-2.1 7.4-8.5 6.4-21.4-2.1-28.8l-10.2-8.9h73.1c11.3,0 20.4-9.1 20.4-20.4 0,0-0.1-100.8-0.2-101.6h86.7c-0.1,0.8-0.2,101.6-0.2,101.6 0,11.3 9.1,20.4 20.4,20.4h73.1l-10.2,8.9c-8.5,7.4-9.5,20.3-2.1,28.8 4,4.7 15.7,12.2 28.8,2.1l51.7-44.7c4.5-3.9 7.1-9.5 7.1-15.4 0-5.9-2.6-11.6-7.1-15.4l-51.7-44.7c-8.5-7.4-21.4-6.4-28.8,2.1-7.4,8.5-6.4,21.4 2.1,28.8l10.3,8.9h-52.7c0,0-0.1-80.4-0.2-81.2h81.4c33.1,0 62.3-19.9 72.7-49.6 4.6-13.2 7-26.9 7-40.9 0.1-61.4-45.3-113.8-107.8-127.5zm62.4,154.9c-4.6,13.1-18.7,22.3-34.2,22.3h-330.6c-15.5,0-29.6-9.2-34.2-22.3-3.1-8.8-4.7-18-4.7-27.4 0-45.6 37.5-84.1 87.3-89.5 9.8-1.1 17.4-8.9 18.2-18.7 3.6-47 47-83.8 98.7-83.8 51.7,0 95.1,36.8 98.7,83.8 0.8,9.8 8.4,17.7 18.2,18.7 49.8,5.4 87.3,43.9 87.3,89.5 0,9.3-1.6,18.5-4.7,27.4z"/>
  </g>
</svg>
