<?xml version="1.0" encoding="utf-8"?>
<!-- Generator: Adobe Illustrator 25.4.1, SVG Export Plug-In . SVG Version: 6.00 Build 0)  -->
<svg version="1.1" id="Outline" xmlns="http://www.w3.org/2000/svg" xmlns:xlink="http://www.w3.org/1999/xlink" x="0px" y="0px"
	 viewBox="0 0 512 512" style="enable-background:new 0 0 512 512;" xml:space="preserve">
<style type="text/css">
	.st0{fill:#FEFEFE;}
	.st1{fill:#FDFDFD;}
</style>
<g>
	<path d="M0.1,398.6c0-97.4,0-194.8,0-292.2C5.6,96.5,14.6,92.2,25.4,91c2.8-0.3,5.7-0.1,8.5-0.1c140.4,0,280.8,0,421.2,0
		c10.3,0,20.5-1.7,30.9-0.1c7.3,1.1,13.9,3.1,19.6,7.8c2.9,2.4,5.3,5,6.2,8.8c0,97.1,0,194.1,0,291.2c-3.7,9.6-12.4,12.4-21,15.1
		c-3.9,1.3-8.2,1.4-12.4,1.4c-148.7,0-297.4,0-446.1,0c-8,0-15.5-1.6-22.4-5.8C5.6,406.8,1.8,403.6,0.1,398.6z"/>
	<path class="st0" d="M0.1,398.6c3.6,2.9,6.1,6.7,10.3,9.2c6.1,3.6,12.5,5.6,19.2,5.6c150.6,0.1,301.1,0.1,451.7,0
		c12.4,0,22.8-5.1,30.6-14.9c0,23.6-0.1,47.2,0.1,70.8c0,3.4-0.7,4.1-4.1,4.1c-159.9-0.1-319.9-0.1-479.8-0.1
		c-8.3,0-16.7-0.1-25,0.1c-2.5,0.1-3.1-0.6-3.1-3.1C0.1,446.5,0.1,422.5,0.1,398.6z"/>
	<path class="st0" d="M511.9,107.4c-7.3-9.4-16.5-14.5-28.9-15.3c-7.6-0.5-15,0.3-22.5,0.3c-143.2,0-286.4,0.1-429.7-0.1
		c-11.1,0-20.4,3.2-27.8,11.5c-0.9,1-2,1.7-3,2.5c0-21.8,0.1-43.5-0.1-65.3c0-3.6,0.7-4.6,4.5-4.6c106.4,0.1,212.8,0.1,319.1,0.1
		c61.4,0,122.9,0,184.3-0.1c3.5,0,4.1,0.8,4,4.1C511.8,62.9,511.9,85.2,511.9,107.4z"/>
	<path class="st1" d="M256,377.7c-73.3,0-146.6,0-219.9,0.1c-4.1,0-5.1-0.9-5.1-5.1c0.1-80.1,0.1-160.2,0-240.3c0-4.1,1-5.1,5.1-5.1
		c146.6,0.1,293.2,0.1,439.8,0c4.1,0,5.1,0.9,5.1,5.1c-0.1,80.1-0.1,160.2,0,240.3c0,4.1-1,5.1-5.1,5.1
		C402.6,377.6,329.3,377.7,256,377.7z"/>
	<path d="M256.5,337.8c-37.8,0-75.6,0-113.4,0c-7.4,0-13.5-2.9-17-9.4c-3.5-6.5-2.9-13.1,1.8-19c3.8-4.8,9-6.5,14.8-6.5
		c48.6-0.1,97.3,0,145.9,0c27,0,54,0.3,80.9-0.1c9-0.1,17.1,6.8,18.3,14.4c1.2,7.5-1.5,16.1-11.6,20c-1.9,0.7-3.5,0.6-5.3,0.6
		C332.8,337.8,294.6,337.8,256.5,337.8z"/>
	<path d="M244,185.3c1.4,11.9-10.9,21.1-20.6,20.9c-12.3-0.2-21.4-9.3-21.4-21.1c0.1-11.8,9.6-20.4,21.1-20.8
		C233.6,163.9,245.7,174.3,244,185.3z"/>
	<path d="M113.1,185.6c1,12.1-10.6,20.6-20.4,20.5c-13.6-0.1-21.3-9.4-21.3-20.9c0-12,7.6-20.3,20.7-20.9
		C103.1,163.9,114.4,173.1,113.1,185.6z"/>
	<path d="M268,185.3c-1-12.8,9.7-21.2,20.8-20.9c13,0.3,20.7,8.6,20.9,20.7c0.2,11.8-8.4,20.9-21.1,21.1
		C278.8,206.3,266.8,197.8,268,185.3z"/>
	<path d="M398.9,185.1c-1.1-11.9,9.9-21.3,21.1-20.7c13.1,0.6,20.7,9,20.7,20.9c0,11.5-7.7,20.7-21.3,20.8
		C409.6,206.2,397.7,197.8,398.9,185.1z"/>
	<path d="M125.4,232.1c10.1-1,21.2,8.2,20.7,21.2c-0.5,13.4-10.4,20.7-21.2,20.4c-11.6-0.4-20.4-7.4-20.7-20.9
		C103.8,241.4,113.1,231.7,125.4,232.1z"/>
	<path d="M386.3,232.1c12.5-0.4,21.7,9.3,21.6,20.4c-0.2,14.2-9.9,21.1-20.9,21.2c-11.5,0.1-20.7-7.8-21-20.6
		C365.5,240.2,376.4,231.2,386.3,232.1z"/>
	<path d="M256.2,232.1c12.5-1.2,21.1,10.8,20.8,20.6c-0.4,14.4-10.4,21.2-21.1,21c-11.4-0.2-20.7-7.4-20.8-21.3
		C235,242.6,243.4,230.8,256.2,232.1z"/>
	<path d="M375,185c0.3,12.8-9.7,21-20.3,21.1c-13.6,0.1-21.3-9.2-21.4-20.7c-0.2-11.5,7.6-21.2,21-21.1
		C366.3,164.5,374.6,172.6,375,185z"/>
	<path d="M342,252.5c1.3,12.1-9,20.5-20.4,21.3c-11,0.8-22.2-10.3-21.5-21.4c0.7-11.2,8.9-20.2,21.5-20.5
		C331.8,231.7,343.4,241.3,342,252.5z"/>
	<path d="M137,185.4c-0.3-11.5,8.8-21.1,20.9-21.1c12.1,0.1,20.8,8.7,20.9,20.7c0,11.4-7.6,20.9-21.1,21
		C146.9,206.2,136.9,197.8,137,185.4z"/>
	<path d="M170,252.2c-1.8-10.5,10-20.8,20.6-20.3c12.5,0.6,20.2,8.4,20.4,21.6c0.2,12.6-10,20.3-20.7,20.1
		C178.8,273.5,169.3,266.3,170,252.2z"/>
</g>
</svg>
