<?xml version="1.0" encoding="utf-8"?>
<!-- Generator: Adobe Illustrator 25.4.1, SVG Export Plug-In . SVG Version: 6.00 Build 0)  -->
<svg version="1.1" id="Outline" xmlns="http://www.w3.org/2000/svg" xmlns:xlink="http://www.w3.org/1999/xlink" x="0px" y="0px"
	 viewBox="0 0 512 512" style="enable-background:new 0 0 512 512;" xml:space="preserve">
<g id="layer1" transform="translate(817.76941,-587.79502)">
	<path id="path4173" d="M-659.5,1063.3c-1.4-1-5-5.4-8-9.8c-5.4-8-18.3-26.9-31.9-46.8c-16.9-24.7-22.6-33.3-22.1-33.8
		c0.5-0.5,24.1-6.5,60.9-15.5c13.6-3.3,21.4-4.8,22.9-4.5c3.6,0.9,9.7,7.1,11.8,11.9c1,2.4,2.3,7.6,2.8,11.5
		c2,15.4,5,20.5,14.6,25.4c10.4,5.2,19.4,11.2,23.8,15.9c3.9,4.1,7.8,13.5,7.9,19c0.1,5.6-1.7,8.8-6.4,11.1
		c-4.6,2.3-65,17.3-69.6,17.3C-655.6,1065.2-657.7,1064.6-659.5,1063.3L-659.5,1063.3z M-426.6,961.5
		c-43.1-22.3-124.6-57.1-184.2-47.9l-6.3,1.3l-0.8-3.6c-0.4-2-2.8-11.4-5.2-21c-12.8-50.6-31.6-127.1-31.3-127.5
		c0.2-0.2,3.7-1.3,7.7-2.4c57.3-22,99.9-73,128.9-115.9c9.5-14.1,12.3-16.3,20.5-16.3c7.1,0,11.5,2.7,14.7,9.2
		c1.3,2.6,8.5,30.3,19,73.3c2.9,12,5.9,22.7,6.7,23.9c0.7,1.1,2.5,2.7,4,3.5c13.5,7.4,23.9,16.7,30.2,27.2c5.4,9,8,16.6,9.1,26.8
		c1.9,16.8-1.6,31.6-10.7,46c-3.1,4.9-4.3,7.8-4.3,10c0,1.7,5.1,23.5,11.3,48.3c6.5,26.1,11.3,47,11.3,49.3c0,4.5-2.3,10.2-5,12.6
		C-414.9,961.5-421,962.8-426.6,961.5L-426.6,961.5z M-449.1,910.2c-0.2-0.8-6.3-25.5-13.6-54.7c-7.2-29.3-13.5-54.6-14-56.3
		c-0.5-1.7-7-27.6-14.4-57.5c-7.4-29.9-13.7-54.6-14-54.9c-0.2-0.2-0.6-0.3-0.7-0.1c-36.5,42.7-70.4,75.3-112,98.9
		c-0.3,0.3,21.7,88.7,22.4,90.1c46.9,3.5,101,17,137.5,32.8C-449.8,912-448.5,912.3-449.1,910.2L-449.1,910.2z M-730.5,939
		c-0.5-1.8-2.5-9.7-4.5-17.7c-6.3-25.5-31.5-126.9-31.9-128.4c-0.6-2.3-5.3-1,69.7-19.6c7.1-1.8,13.1-2.9,13.4-2.6
		c0.6,0.6,37.9,149.5,37.9,151.2c0,0.8-17.4,5.4-51,13.5c-6.2,1.5-15.2,3.7-20,4.8C-728.8,943-729.4,943-730.5,939L-730.5,939z
		 M-767.2,932.9c-10.6-1.8-21.3-7.5-29.7-15.9c-20.8-20.7-27-56.5-14.1-81.2c4.3-8.3,17.2-21.7,19.1-19.8
		c0.5,0.5,29.1,114.8,29.1,116.4C-762.8,933.5-763.2,933.6-767.2,932.9L-767.2,932.9z M-330.2,873c-2.9-1.1-31.7-13.4-37.1-15.8
		c-1.4-0.6-6.9-3-12.2-5.2c-16-6.8-17-7.6-17.7-14.4c-0.6-5.8,1.9-9.9,7.2-11.9c4.7-1.8,4.3-1.9,29.7,9c10.6,4.5,22.3,9.5,26.2,11.1
		c18,7.4,19.3,8.4,20.2,15c0.6,4.2-1.4,9.2-4.4,11.1C-321.3,874-326.5,874.4-330.2,873L-330.2,873z M-387,785.6
		c-3.1-1.7-6-6.5-6-10.1c0-3.4,2.5-7.9,5.4-9.8c1.1-0.7,17.4-5.1,36.3-9.8c33.5-8.3,34.4-8.5,37.9-7.3c4.6,1.6,7.6,5.8,7.6,10.8
		c0,4-2.4,8.6-5.3,10.1c-2.8,1.5-67.7,17.4-70.9,17.4C-383.4,786.9-385.7,786.3-387,785.6L-387,785.6z M-416.5,737.5
		c-4.4-2.2-6.5-5.5-6.5-10.2c0-4.6-1.1-2.9,29.6-46.6c6.5-9.2,12.4-16.7,13.9-17.7c7.6-4.6,17.3,1.4,17.2,10.7
		c0,3.6,1,1.9-27.9,43.4c-10.2,14.7-14,19.4-16.3,20.5C-410.2,739.4-412.8,739.4-416.5,737.5L-416.5,737.5z"/>
	<g id="g4452" transform="matrix(0.36160947,0,0,0.36160947,-1405.6123,360.68288)">
	</g>
</g>
</svg>
