<svg id="Outline" xmlns="http://www.w3.org/2000/svg" viewBox="0 0 288 511.3"><defs><style>.cls-1{fill:#fefefe;}.cls-2{fill:#010101;}.cls-3{fill:none;}</style></defs><path class="cls-1" d="M400,280.24q0,114.51.05,229c0,1.95-.44,2.39-2.39,2.39q-141.62-.07-283.22,0c-2,0-2.39-.44-2.39-2.39Q112.07,256,112,2.75c0-1.95.44-2.4,2.39-2.39q66.77.09,133.54,0c-2.08,1.13-4.45,1-6.68,1.43C205,8.4,176.79,41.27,176.67,78.13c-.22,65.21-.07,130.42-.06,195.63a64.29,64.29,0,0,0,1.22,12.16c8.41,43.8,48.84,71.8,92.65,64.22,36.93-6.39,65.24-39.22,65.37-76.65.24-64.86.08-129.73.06-194.59,0-2.43-.22-4.86-.45-7.28-3.2-33.26-28.58-62-61.14-69.12-3.57-.79-7.18-1.4-10.77-2.09q67.11,0,134.22-.06c2,0,2.23.51,2.22,2.3q-.08,110.66,0,221.31c-9.71,0-19.43,0-29.14-.12-2.26,0-3.06.4-3,2.9.13,14.59.07,29.18.06,43.77,0,30.77-10.31,57.59-32,79.34C307.44,378.24,273,388.41,233.66,381a104.41,104.41,0,0,1-51.38-25.77c-23.46-21.2-36.27-47.65-37.4-79.33-.59-16.48-.2-33-.17-49.49,0-1.9-.26-2.71-2.48-2.67-9,.14-18,.11-27.07,0-1.91,0-2.48.42-2.47,2.42.09,15,0,30.05.06,45.07a142.91,142.91,0,0,0,1.51,21.28c4.34,28.32,15.82,53.37,35,74.7,23.61,26.29,53.08,41.78,88,46.75,2.39.34,3.11.9,3.09,3.36q-.16,29.56,0,59.14c0,2.14-.53,2.73-2.7,2.72-19.61-.09-39.22,0-58.82-.1-1.8,0-2.31.41-2.29,2.26.1,9.29.08,18.58,0,27.87,0,1.46.38,1.87,1.86,1.86q77.82,0,155.64,0c1.69,0,1.95-.54,1.94-2.06-.07-9.11-.1-18.23,0-27.35,0-2-.48-2.55-2.53-2.54-19.52.08-39,0-58.56.1-2.13,0-2.75-.46-2.74-2.66q.15-29.31,0-58.62c0-2.82.63-3.62,3.56-4,34.38-4.91,63.47-20.13,86.84-45.86,20-22,31.92-48,35.95-77.52C399,287.14,398.7,283.57,400,280.24Z" transform="translate(-112 -0.35)"/><path d="M263.55.41c3.59.69,7.2,1.3,10.77,2.09,32.56,7.16,57.94,35.86,61.14,69.12.23,2.42.44,4.85.45,7.28,0,64.86.18,129.73-.06,194.59-.13,37.43-28.44,70.26-65.37,76.65-43.81,7.58-84.24-20.42-92.65-64.22a64.29,64.29,0,0,1-1.22-12.16c0-65.21-.16-130.42.06-195.63C176.79,41.27,205,8.4,241.25,1.84c2.23-.4,4.6-.3,6.68-1.43Z" transform="translate(-112 -0.35)"/><path class="cls-2" d="M400,280.24c-1.25,3.33-1,6.9-1.44,10.35-4,29.55-15.94,55.48-35.95,77.52-23.37,25.73-52.46,40.95-86.84,45.86-2.93.41-3.58,1.21-3.56,4q.19,29.31,0,58.62c0,2.2.61,2.67,2.74,2.66,19.52-.09,39,0,58.56-.1,2,0,2.55.52,2.53,2.54-.12,9.12-.09,18.24,0,27.35,0,1.52-.25,2.06-1.94,2.06q-77.82-.09-155.64,0c-1.48,0-1.87-.4-1.86-1.86.07-9.29.09-18.58,0-27.87,0-1.85.49-2.27,2.29-2.26,19.6.07,39.21,0,58.82.1,2.17,0,2.71-.58,2.7-2.72q-.12-29.58,0-59.14c0-2.46-.7-3-3.09-3.36-34.95-5-64.42-20.46-88-46.75-19.15-21.33-30.63-46.38-35-74.7a142.91,142.91,0,0,1-1.51-21.28c0-15,0-30-.06-45.07,0-2,.56-2.44,2.47-2.42,9,.1,18.05.13,27.07,0,2.22,0,2.49.77,2.48,2.67,0,16.49-.42,33,.17,49.49,1.13,31.68,13.94,58.13,37.4,79.33A104.41,104.41,0,0,0,233.66,381c39.34,7.38,73.78-2.79,102.14-31.18,21.73-21.75,32-48.57,32-79.34,0-14.59.07-29.18-.06-43.77,0-2.5.77-2.93,3-2.9,9.71.14,19.43.09,29.14.12Z" transform="translate(-112 -0.35)"/><rect class="cls-3" width="288" height="511.3"/></svg>