<svg id="Layer_1" data-name="Layer 1" xmlns="http://www.w3.org/2000/svg" viewBox="0 0 2499.79 1425"><defs><style>.cls-1{fill:#fff;}</style></defs><path class="cls-1" d="M28.42,649.3c-5.22,0-9.36,4-10,9.78L.11,797.94,18.39,934.4c.67,5.75,4.81,9.76,10,9.76,5,0,9.16-4,10-9.71v0L60.06,797.94,38.39,659.06c-.78-5.73-5-9.76-10-9.76Zm102.8-75.87c-.86-6-5.14-10.08-10.4-10.08s-9.68,4.25-10.41,10.08c0,.05-24.57,224.51-24.57,224.51l24.57,219.53c.7,5.89,5.08,10.14,10.41,10.14s9.51-4.14,10.37-10.08l28-219.59L131.22,573.43ZM518.45,366.35c-10.08,0-18.41,8.25-18.9,18.73L480,798.12l19.57,266.93c.51,10.43,8.82,18.66,18.9,18.66s18.34-8.25,18.93-18.71v.08l22.12-267-22.12-413C536.79,374.6,528.48,366.35,518.45,366.35ZM318,509.9c-7.74,0-14,6.19-14.68,14.44L281.31,798l22,264.77c.59,8.2,6.94,14.39,14.68,14.39s14-6.19,14.66-14.39L357.74,798,332.69,524.28C332,516.09,325.7,509.9,318,509.9Zm404.1,573.79c12.5,0,22.66-10.09,23.17-23l19.2-262.44L745.33,248.35c-.51-12.9-10.68-23-23.18-23s-22.79,10.11-23.2,23l-17,549.85,17,262.55A23.35,23.35,0,0,0,722.13,1083.69Zm417,1.23c17.21,0,31.4-14.17,31.73-31.59v0l13.38-254.91-13.39-635.1c-.29-17.4-14.51-31.59-31.72-31.59s-31.45,14.17-31.72,31.62l-12,634.86c0,.4,12,255.28,12,255.28A32,32,0,0,0,1139.09,1084.92Zm-210.07-1c15,0,27.05-12,27.45-27.34v.18l16.29-258.46L956.44,244.43C956,229.1,944,217.12,929,217.12a27.5,27.5,0,0,0-27.47,27.31L887,798.34l14.52,258.41A27.49,27.49,0,0,0,929,1083.93Zm-511.17-2.42c8.9,0,16.11-7.13,16.78-16.51l23.61-267-23.61-254c-.64-9.38-7.85-16.46-16.78-16.46s-16.23,7.13-16.8,16.57L380.27,798l20.78,267C401.64,1074.38,408.82,1081.51,417.85,1081.51ZM219,1066.88c6.51,0,11.78-5.13,12.53-12.23L258.06,798,231.57,531.6c-.78-7.12-6-12.26-12.55-12.26s-11.86,5.16-12.53,12.26L183.16,798l23.33,256.64c.65,7.12,5.92,12.28,12.53,12.28Zm814.64-831.67A29.65,29.65,0,0,0,1004,264.7L990.8,798.37,1004,1055.16a29.59,29.59,0,0,0,29.63,29.28c16.23,0,29.19-12.91,29.57-29.47v.22l14.84-256.79-14.84-533.76c-.38-16.5-13.34-29.43-29.57-29.43Zm-413.75,849c11.24,0,20.51-9.17,21.05-20.86L661.61,798.2,641,290.69c-.56-11.72-9.81-20.86-21.05-20.86s-20.59,9.17-21.07,20.86L580.56,798.2l18.3,265.27A21.31,21.31,0,0,0,619.91,1084.22Zm230.56-25v-.13l17.74-260.77L850.47,229.86c-.43-14.12-11.56-25.19-25.3-25.19s-24.95,11.05-25.32,25.19l-15.76,568.4,15.78,260.91a25.43,25.43,0,0,0,25.3,25c13.76,0,24.84-11,25.3-25.1v.1Zm1342-588.56a306.92,306.92,0,0,0-118.93,23.87C2049.05,217.38,1816.67,0,1533.21,0a549.69,549.69,0,0,0-196.68,36.75c-23.21,9-29.39,18.23-29.6,36.16v975.88a37.21,37.21,0,0,0,33.2,36.35c.78.08,846.81.51,852.3.51,169.79,0,307.47-137.68,307.47-307.5s-137.65-307.52-307.45-307.52ZM1244.07,72.05c-18.47,0-33.63,15.16-33.9,33.79L1196.3,798.5l13.9,251.39a34.09,34.09,0,0,0,33.87,33.5c18.42,0,33.58-15.14,33.85-33.77v.3L1293,798.5l-15.08-692.71c-.27-18.58-15.43-33.74-33.85-33.74ZM248.41,1281.12c-36.38-8.55-46.22-13.12-46.22-27.53,0-10.16,8.2-20.67,32.77-20.67,21,0,37.4,8.52,52.13,23.6l33.1-32.1c-21.64-22.61-47.85-36.05-83.56-36.05-45.27,0-82,25.57-82,67.21,0,45.22,29.52,58.66,71.78,68.47,43.25,9.81,51.13,16.4,51.13,31.16,0,17.37-12.82,24.92-40,24.92-22,0-42.61-7.53-58.68-26.26l-33.1,29.52C163.18,1409,196.65,1425,235,1425c62.64,0,90.17-29.49,90.17-73.07,0-49.84-40.32-62.29-76.72-70.81Zm211.14-92.75c-62.59,0-99.61,48.5-99.61,118.32S397,1425,459.55,1425s99.66-48.47,99.66-118.28S522.14,1188.37,459.55,1188.37Zm0,191.09c-37,0-52.45-31.8-52.45-72.75s15.43-72.77,52.45-72.77,52.45,31.8,52.45,72.77S496.62,1379.46,459.55,1379.46Zm284.86-58.66c0,36.69-18.06,59.33-47.2,59.33s-46.87-23.28-46.87-60V1192H604.43V1320.8c0,66.83,37.39,104.2,92.77,104.2,58.34,0,93.1-38.36,93.1-104.84V1192H744.41ZM988.25,1289c0,12.79.64,41.61.64,50.14-2.95-5.92-10.48-17.37-16-25.92l-81.32-121.3h-43.9V1421.4h45.24v-101c0-12.79-.64-41.61-.64-50.14,2.93,5.89,10.51,17.37,16,25.92l84.25,125.2h41V1191.92H988.24V1289Zm176-97h-71.78v229.48H1161c59,0,117.37-34.12,117.37-114.74C1278.32,1222.75,1229.8,1192,1164.26,1192Zm-3.31,184.9h-22.58v-140.3h24.25c48.52,0,68.52,23.25,68.52,70.14C1231.14,1348.65,1209.15,1376.85,1161,1376.85Zm259.29-142.94c20.65,0,33.77,9.2,42,24.92l42.61-19.65c-14.43-29.82-40.67-50.81-83.93-50.81-59.92,0-101.91,48.5-101.91,118.32,0,72.42,40.29,118.28,100.27,118.28,41.64,0,69.17-19.32,84.9-51.77l-38.66-23c-12.13,20.35-24.28,29.2-44.92,29.2-34.41,0-54.41-31.49-54.41-72.75,0-42.59,19.71-72.78,54.09-72.78Zm170.2-42h-45.89v229.48h137.92v-45.28h-92V1192Zm212.92-3.58c-62.64,0-99.66,48.5-99.66,118.32s37,118.28,99.66,118.28S1903,1376.5,1903,1306.69s-37-118.32-99.63-118.32Zm0,191.09c-37.07,0-52.45-31.8-52.45-72.75s15.38-72.77,52.45-72.77,52.4,31.8,52.4,72.77S1840.36,1379.46,1803.36,1379.46Zm284.81-58.66c0,36.69-18,59.33-47.16,59.33s-46.88-23.28-46.88-60V1192h-45.89V1320.8c0,66.83,37.37,104.2,92.77,104.2,58.34,0,93.08-38.36,93.08-104.84V1192h-45.92V1320.8Zm175-128.85h-71.75v229.48h68.47c59,0,117.34-34.12,117.34-114.74,0-83.94-48.49-114.74-114.06-114.74Zm-3.28,184.9h-22.61v-140.3h24.28c48.47,0,68.47,23.25,68.47,70.14C2330.07,1348.65,2308.1,1376.85,2259.93,1376.85Z" transform="translate(-0.11 0)"/></svg>