<?xml version="1.0" encoding="utf-8"?>
<!-- Generator: Adobe Illustrator 25.4.1, SVG Export Plug-In . SVG Version: 6.00 Build 0)  -->
<svg version="1.1" id="Layer_1" xmlns="http://www.w3.org/2000/svg" xmlns:xlink="http://www.w3.org/1999/xlink" x="0px" y="0px"
	 viewBox="0 0 2499.8 1425" style="enable-background:new 0 0 2499.8 1425;" xml:space="preserve">
<path d="M28.3,649.3c-5.2,0-9.4,4-10,9.8L0,797.9l18.3,136.5c0.7,5.8,4.8,9.8,10,9.8c5,0,9.2-4,10-9.7l0,0L60,797.9L38.3,659.1
	C37.5,653.3,33.3,649.3,28.3,649.3L28.3,649.3z M131.1,573.4c-0.9-6-5.1-10.1-10.4-10.1s-9.7,4.2-10.4,10.1
	c0,0-24.6,224.5-24.6,224.5l24.6,219.5c0.7,5.9,5.1,10.1,10.4,10.1s9.5-4.1,10.4-10.1l28-219.6L131.1,573.4z M518.3,366.4
	c-10.1,0-18.4,8.2-18.9,18.7l-19.6,413l19.6,266.9c0.5,10.4,8.8,18.7,18.9,18.7s18.3-8.2,18.9-18.7v0.1l22.1-267l-22.1-413
	C536.7,374.6,528.4,366.4,518.3,366.4z M317.9,509.9c-7.7,0-14,6.2-14.7,14.4l-22,273.7l22,264.8c0.6,8.2,6.9,14.4,14.7,14.4
	s14-6.2,14.7-14.4L357.6,798l-25-273.7C331.9,516.1,325.6,509.9,317.9,509.9z M722,1083.7c12.5,0,22.7-10.1,23.2-23l19.2-262.4
	l-19.1-549.9c-0.5-12.9-10.7-23-23.2-23s-22.8,10.1-23.2,23l-17,549.8l17,262.6C699.1,1073.4,709.3,1083.6,722,1083.7L722,1083.7z
	 M1139,1084.9c17.2,0,31.4-14.2,31.7-31.6l0,0l13.4-254.9l-13.4-635.1c-0.3-17.4-14.5-31.6-31.7-31.6s-31.4,14.2-31.7,31.6
	l-12,634.9c0,0.4,12,255.3,12,255.3C1107.6,1070.8,1121.6,1084.8,1139,1084.9L1139,1084.9z M928.9,1083.9c15,0,27-12,27.5-27.3v0.2
	l16.3-258.5l-16.3-553.9c-0.4-15.3-12.4-27.3-27.4-27.3c-15.1,0-27.4,12.2-27.5,27.3l-14.5,553.9l14.5,258.4
	C901.6,1071.8,913.8,1083.9,928.9,1083.9L928.9,1083.9z M417.7,1081.5c8.9,0,16.1-7.1,16.8-16.5l23.6-267l-23.6-254
	c-0.6-9.4-7.9-16.5-16.8-16.5s-16.2,7.1-16.8,16.6L380.2,798l20.8,267C401.5,1074.4,408.7,1081.5,417.7,1081.5L417.7,1081.5z
	 M218.9,1066.9c6.5,0,11.8-5.1,12.5-12.2L258,798l-26.5-266.4c-0.8-7.1-6-12.3-12.6-12.3s-11.9,5.2-12.5,12.3L183.1,798l23.3,256.6
	C207,1061.8,212.3,1066.9,218.9,1066.9L218.9,1066.9z M1033.5,235.2c-16.3,0-29.6,13.2-29.6,29.5l-13.2,533.7l13.2,256.8
	c0.2,16.2,13.4,29.3,29.6,29.3c16.2,0,29.2-12.9,29.6-29.5v0.2l14.8-256.8l-14.8-533.8C1062.7,248.1,1049.8,235.2,1033.5,235.2
	L1033.5,235.2z M619.8,1084.2c11.2,0,20.5-9.2,21-20.9l20.7-265.1l-20.6-507.5c-0.6-11.7-9.8-20.9-21-20.9s-20.6,9.2-21.1,20.9
	l-18.3,507.5l18.3,265.3C599.1,1074.9,608.3,1084.1,619.8,1084.2L619.8,1084.2z M850.3,1059.2v-0.1l17.7-260.8l-17.7-568.4
	c-0.4-14.1-11.6-25.2-25.3-25.2s-25,11.1-25.3,25.2L784,798.3l15.8,260.9c0.2,13.8,11.5,24.9,25.3,25c13.8,0,24.8-11,25.3-25.1
	L850.3,1059.2L850.3,1059.2z M2192.3,470.6c-40.8,0-81.3,8.1-118.9,23.9C2048.9,217.4,1816.6,0,1533.1,0
	c-67.3,0.1-133.9,12.6-196.7,36.8c-23.2,9-29.4,18.2-29.6,36.2v975.9c0.3,18.8,14.6,34.3,33.2,36.3c0.8,0.1,846.8,0.5,852.3,0.5
	c169.8,0,307.5-137.7,307.5-307.5S2362.1,470.6,2192.3,470.6L2192.3,470.6z M1244,72.1c-18.5,0-33.6,15.2-33.9,33.8l-13.9,692.7
	l13.9,251.4c0.3,18.5,15.4,33.4,33.9,33.5c18.4,0,33.6-15.1,33.8-33.8v0.3l15.1-251.4l-15.1-692.7C1277.5,87.2,1262.4,72,1244,72.1
	L1244,72.1z M248.3,1281.1c-36.4-8.6-46.2-13.1-46.2-27.5c0-10.2,8.2-20.7,32.8-20.7c21,0,37.4,8.5,52.1,23.6l33.1-32.1
	c-21.6-22.6-47.9-36.1-83.6-36.1c-45.3,0-82,25.6-82,67.2c0,45.2,29.5,58.7,71.8,68.5c43.3,9.8,51.1,16.4,51.1,31.2
	c0,17.4-12.8,24.9-40,24.9c-22,0-42.6-7.5-58.7-26.3l-33.1,29.5c17.4,25.6,50.9,41.6,89.2,41.6c62.6,0,90.2-29.5,90.2-73.1
	C325.1,1302.1,284.7,1289.6,248.3,1281.1L248.3,1281.1z M459.4,1188.4c-62.6,0-99.6,48.5-99.6,118.3s37.1,118.3,99.6,118.3
	s99.7-48.5,99.7-118.3S522,1188.4,459.4,1188.4z M459.4,1379.5c-37,0-52.5-31.8-52.5-72.8s15.4-72.8,52.5-72.8s52.5,31.8,52.5,72.8
	S496.5,1379.5,459.4,1379.5z M744.3,1320.8c0,36.7-18.1,59.3-47.2,59.3s-46.9-23.3-46.9-60V1192h-45.9v128.8
	c0,66.8,37.4,104.2,92.8,104.2c58.3,0,93.1-38.4,93.1-104.8V1192h-45.9V1320.8z M988.1,1289c0,12.8,0.6,41.6,0.6,50.1
	c-3-5.9-10.5-17.4-16-25.9l-81.3-121.3h-43.9v229.5h45.2v-101c0-12.8-0.6-41.6-0.6-50.1c2.9,5.9,10.5,17.4,16,25.9l84.2,125.2h41
	v-229.5h-45.3L988.1,1289L988.1,1289z M1164.1,1192h-71.8v229.5h68.5c59,0,117.4-34.1,117.4-114.7
	C1278.2,1222.8,1229.7,1192,1164.1,1192L1164.1,1192z M1160.8,1376.9h-22.6v-140.3h24.2c48.5,0,68.5,23.2,68.5,70.1
	C1231,1348.7,1209,1376.8,1160.8,1376.9L1160.8,1376.9z M1420.1,1234c20.7,0,33.8,9.2,42,24.9l42.6-19.7
	c-14.4-29.8-40.7-50.8-83.9-50.8c-59.9,0-101.9,48.5-101.9,118.3c0,72.4,40.3,118.3,100.3,118.3c41.6,0,69.2-19.3,84.9-51.8
	l-38.7-23c-12.1,20.3-24.3,29.2-44.9,29.2c-34.4,0-54.4-31.5-54.4-72.8C1366.1,1264.1,1385.8,1233.9,1420.1,1234L1420.1,1234z
	 M1590.3,1192h-45.9v229.5h137.9v-45.3h-92L1590.3,1192L1590.3,1192z M1803.2,1188.4c-62.6,0-99.7,48.5-99.7,118.3
	s37,118.3,99.7,118.3s99.7-48.5,99.7-118.3S1865.9,1188.4,1803.2,1188.4L1803.2,1188.4z M1803.2,1379.5c-37.1,0-52.4-31.8-52.4-72.8
	s15.4-72.8,52.4-72.8s52.4,31.8,52.4,72.8S1840.2,1379.5,1803.2,1379.5L1803.2,1379.5z M2088,1320.8c0,36.7-18,59.3-47.2,59.3
	c-29.2,0-46.9-23.3-46.9-60V1192h-45.9v128.8c0,66.8,37.4,104.2,92.8,104.2c58.3,0,93.1-38.4,93.1-104.8V1192H2088V1320.8
	L2088,1320.8z M2263,1192h-71.8v229.5h68.5c59,0,117.3-34.1,117.3-114.7C2377.1,1222.8,2328.6,1192,2263,1192z M2259.8,1376.9h-22.6
	v-140.3h24.3c48.5,0,68.5,23.2,68.5,70.1C2330,1348.7,2308,1376.8,2259.8,1376.9L2259.8,1376.9z"/>
</svg>
